<svg width="150" height="150" viewBox="0 0 150 150" fill="none" xmlns="http://www.w3.org/2000/svg">
<rect width="150" height="150" fill="#F75590"/>
<path d="M51.5761 93.344C49.8267 93.344 48.6534 93.28 48.0561 93.152C47.5014 93.1093 47.2241 92.9173 47.2241 92.576C47.2241 92.064 47.7147 91.7653 48.6961 91.68L52.7921 91.36C53.2187 91.3173 53.5387 91.2107 53.7521 91.04C54.0081 90.8267 54.1787 90.272 54.2641 89.376C54.3067 89.0773 54.3494 88.288 54.3921 87.008C54.4774 85.728 54.5414 84.256 54.5841 82.592C54.6694 80.928 54.7121 79.3707 54.7121 77.92C54.7121 73.6107 54.3281 70.4747 53.5601 68.512C52.7921 66.5067 51.1067 65.504 48.5041 65.504C46.0721 65.504 44.1307 66.1653 42.6801 67.488C41.2294 68.8107 40.0987 70.368 39.2881 72.16V89.76H42.5521C43.5334 89.76 44.1734 89.824 44.4721 89.952C44.7707 90.1227 44.9201 90.3147 44.9201 90.528C44.9201 90.7413 44.7707 90.9333 44.4721 91.104C44.2161 91.2747 43.8961 91.36 43.5121 91.36C40.6107 91.36 38.3281 91.3813 36.6641 91.424C35.0001 91.424 33.9761 91.424 33.5921 91.424C31.5867 91.424 30.5841 91.168 30.5841 90.656C30.5841 90.272 31.2027 90.016 32.4401 89.888L34.6801 89.632C35.5761 89.5467 36.1094 89.056 36.2801 88.16C36.4507 87.264 36.5787 86.2187 36.6641 85.024C36.7067 84.2987 36.7281 83.5307 36.7281 82.72C36.7707 81.9093 36.7921 80.6933 36.7921 79.072V77.728C36.7921 77.3013 36.7921 76.8747 36.7921 76.448C36.7921 75.9787 36.7707 75.5093 36.7281 75.04C36.6001 72.096 36.1307 69.8773 35.3201 68.384C34.5094 66.8907 32.9947 66.144 30.7761 66.144C28.3014 66.144 26.1894 67.04 24.4401 68.832C22.7334 70.624 21.8801 73.12 21.8801 76.32V90.144H24.4401C25.7627 90.144 26.7014 90.2507 27.2561 90.464C27.7681 90.72 28.0241 90.976 28.0241 91.232C28.0241 91.7013 27.5761 91.936 26.6801 91.936C26.0827 91.936 24.6534 91.936 22.3921 91.936C20.1307 91.8933 17.3361 91.872 14.0081 91.872C13.6667 91.872 13.3681 91.7867 13.1121 91.616C12.8561 91.4453 12.7281 91.2533 12.7281 91.04C12.7281 90.656 13.2827 90.4213 14.3921 90.336C15.6721 90.208 16.5894 90.1653 17.1441 90.208C17.7414 90.208 18.1254 90.08 18.2961 89.824C18.5094 89.568 18.6587 89.0133 18.7441 88.16C18.8294 87.3067 18.9574 85.7067 19.1281 83.36C19.3414 81.0133 19.4481 78.2613 19.4481 75.104C19.4481 72.2027 19.3414 70.0907 19.1281 68.768C18.9574 67.4027 18.5094 66.72 17.7841 66.72H15.6721C12.5574 66.72 11.0001 66.464 11.0001 65.952C11.0001 65.6107 11.7894 65.312 13.3681 65.056C14.9467 64.7573 17.2934 64.608 20.4081 64.608C20.7494 64.608 21.0054 64.7147 21.1761 64.928C21.3467 65.0987 21.4534 65.4613 21.4961 66.016L21.6881 70.176C22.4561 68.2987 23.6507 66.848 25.2721 65.824C26.8934 64.7573 28.7494 64.224 30.8401 64.224C34.7654 64.224 37.3894 66.08 38.7121 69.792C41.1867 65.6533 44.4934 63.584 48.6321 63.584C51.0641 63.584 53.0907 64.416 54.7121 66.08C56.3334 67.7013 57.1441 70.3253 57.1441 73.952V91.616H60.1521C61.5601 91.616 62.4561 91.68 62.8401 91.808C63.2241 91.9787 63.4161 92.1707 63.4161 92.384C63.4161 92.896 62.5627 93.1733 60.8561 93.216C59.2347 93.216 57.9121 93.216 56.8881 93.216C55.9067 93.2587 55.0321 93.28 54.2641 93.28C53.4961 93.3227 52.6001 93.344 51.5761 93.344ZM122.917 93.995C120.32 93.995 118.579 93.9 117.692 93.71C116.869 93.6467 116.457 93.3617 116.457 92.855C116.457 92.095 117.185 91.6517 118.642 91.525L124.722 91.05C125.355 90.9867 125.83 90.8283 126.147 90.575C126.527 90.2583 126.78 89.435 126.907 88.105C126.97 87.6617 127.034 86.49 127.097 84.59C127.224 82.69 127.319 80.505 127.382 78.035C127.509 75.565 127.572 73.2533 127.572 71.1C127.572 64.7033 127.002 60.0483 125.862 57.135C124.722 54.1583 122.22 52.67 118.357 52.67C114.747 52.67 111.865 53.6517 109.712 55.615C107.559 57.5783 105.88 59.89 104.677 62.55V88.675H109.522C110.979 88.675 111.929 88.77 112.372 88.96C112.815 89.2133 113.037 89.4983 113.037 89.815C113.037 90.1317 112.815 90.4167 112.372 90.67C111.992 90.9233 111.517 91.05 110.947 91.05C106.64 91.05 103.252 91.0817 100.782 91.145C98.3121 91.145 96.7921 91.145 96.2221 91.145C93.2454 91.145 91.7571 90.765 91.7571 90.005C91.7571 89.435 92.6754 89.055 94.5121 88.865L97.8371 88.485C99.1671 88.3583 99.9587 87.63 100.212 86.3C100.465 84.97 100.655 83.4183 100.782 81.645C100.845 80.5683 100.877 79.4283 100.877 78.225C100.94 77.0217 100.972 75.2167 100.972 72.81V70.815C100.972 70.1817 100.972 69.5483 100.972 68.915C100.972 68.2183 100.94 67.5217 100.877 66.825C100.687 62.455 99.9904 59.1617 98.7871 56.945C97.5837 54.7283 95.3354 53.62 92.0421 53.62C88.3687 53.62 85.2337 54.95 82.6371 57.61C80.1037 60.27 78.8371 63.975 78.8371 68.725V89.245H82.6371C84.6004 89.245 85.9937 89.4033 86.8171 89.72C87.5771 90.1 87.9571 90.48 87.9571 90.86C87.9571 91.5567 87.2921 91.905 85.9621 91.905C85.0754 91.905 82.9537 91.905 79.5971 91.905C76.2404 91.8417 72.0921 91.81 67.1521 91.81C66.6454 91.81 66.2021 91.6833 65.8221 91.43C65.4421 91.1767 65.2521 90.8917 65.2521 90.575C65.2521 90.005 66.0754 89.6567 67.7221 89.53C69.6221 89.34 70.9837 89.2767 71.8071 89.34C72.6937 89.34 73.2637 89.15 73.5171 88.77C73.8337 88.39 74.0554 87.5667 74.1821 86.3C74.3087 85.0333 74.4987 82.6583 74.7521 79.175C75.0687 75.6917 75.2271 71.6067 75.2271 66.92C75.2271 62.6133 75.0687 59.4783 74.7521 57.515C74.4987 55.4883 73.8337 54.475 72.7571 54.475H69.6221C64.9987 54.475 62.6871 54.095 62.6871 53.335C62.6871 52.8283 63.8587 52.385 66.2021 52.005C68.5454 51.5617 72.0287 51.34 76.6521 51.34C77.1587 51.34 77.5387 51.4983 77.7921 51.815C78.0454 52.0683 78.2037 52.6067 78.2671 53.43L78.5521 59.605C79.6921 56.8183 81.4654 54.665 83.8721 53.145C86.2787 51.5617 89.0337 50.77 92.1371 50.77C97.9637 50.77 101.859 53.525 103.822 59.035C107.495 52.8917 112.404 49.82 118.547 49.82C122.157 49.82 125.165 51.055 127.572 53.525C129.979 55.9317 131.182 59.8267 131.182 65.21V91.43H135.647C137.737 91.43 139.067 91.525 139.637 91.715C140.207 91.9683 140.492 92.2533 140.492 92.57C140.492 93.33 139.225 93.7417 136.692 93.805C134.285 93.805 132.322 93.805 130.802 93.805C129.345 93.8683 128.047 93.9 126.907 93.9C125.767 93.9633 124.437 93.995 122.917 93.995Z" fill="#FBD87F"/>
</svg>
